<!DOCTYPE svg PUBLIC "-//W3C//DTD SVG 20010904//EN" "http://www.w3.org/TR/2001/REC-SVG-20010904/DTD/svg10.dtd">
<svg version="1.0" xmlns="http://www.w3.org/2000/svg" width="345px" height="345px" viewBox="0 0 3450 3450" preserveAspectRatio="xMidYMid meet">
<g id="layer1" fill="#343e5c" stroke="none">
 <path d="M3025 3445 c-5 -2 -30 -9 -55 -15 -41 -11 -81 -47 -422 -387 l-376 -375 -104 50 c-126 61 -221 94 -358 123 -138 30 -408 32 -544 5 -489 -97 -890 -427 -1070 -883 -52 -131 -73 -227 -86 -387 -13 -165 1 -387 31 -509 57 -229 178 -443 354 -625 122 -128 234 -213 375 -286 169 -88 293 -124 490 -143 489 -48 867 82 1190 406 204 205 330 439 392 724 29 137 32 418 5 547 -27 131 -74 269 -127 377 l-49 98 132 135 c73 74 241 245 373 380 230 233 243 248 258 302 19 66 20 174 3 240 -25 97 -112 183 -212 213 -47 13 -173 20 -200 10z m-1380 -1173 c411 -112 675 -472 652 -887 -20 -358 -251 -660 -595 -775 -86 -30 -112 -34 -237 -38 -118 -3 -154 -1 -228 17 -397 95 -667 436 -667 842 0 368 219 684 563 814 153 57 361 68 512 27z"/>
 </g>

</svg>