<!DOCTYPE svg PUBLIC "-//W3C//DTD SVG 20010904//EN" "http://www.w3.org/TR/2001/REC-SVG-20010904/DTD/svg10.dtd">
<svg version="1.0" xmlns="http://www.w3.org/2000/svg" width="436px" height="413px" viewBox="0 0 4360 4130" preserveAspectRatio="xMidYMid meet">
<g id="layer1" fill="#343e5c" stroke="none">
 <path d="M1292 4114 c-132 -36 -262 -164 -311 -305 -62 -181 -15 -379 123 -514 201 -197 510 -193 704 9 95 98 142 212 142 341 0 137 -44 246 -140 344 -66 69 -130 108 -207 127 -75 17 -243 16 -311 -2z"/>
 <path d="M3233 4115 c-70 -17 -129 -53 -195 -119 -155 -155 -191 -383 -92 -579 34 -67 144 -177 211 -211 321 -162 697 45 729 403 12 135 -37 271 -134 373 -70 74 -136 116 -209 133 -71 17 -240 17 -310 0z"/>
 <path d="M886 2949 c-5 -15 -286 -2387 -286 -2414 0 -13 -28 -15 -212 -15 -191 0 -216 -2 -253 -20 -51 -25 -109 -85 -124 -129 -15 -45 -14 -159 2 -218 18 -67 81 -130 138 -137 24 -3 236 -7 471 -10 l428 -6 5 23 c2 12 16 126 31 252 14 127 27 231 28 231 0 1 27 -2 59 -7 35 -6 666 -8 1541 -7 l1482 3 48 25 c62 32 84 62 102 136 19 82 19 335 -1 411 -35 136 -212 646 -256 741 -88 189 -195 318 -306 373 l-48 24 -1211 3 -1211 2 9 68 c4 37 11 86 14 110 l5 42 1510 0 c1469 0 1509 0 1509 19 0 10 -53 124 -117 252 l-118 234 -1600 5 c-880 3 -1608 9 -1617 14 -12 5 -19 4 -22 -5z"/>
 </g>

</svg>